<?xml version="1.0" standalone="no"?>
<!DOCTYPE svg PUBLIC "-//W3C//DTD SVG 20010904//EN" "http://www.w3.org/TR/2001/REC-SVG-20010904/DTD/svg10.dtd">
<!-- Created using Krita: https://krita.org -->
<svg xmlns="http://www.w3.org/2000/svg" 
    xmlns:xlink="http://www.w3.org/1999/xlink"
    xmlns:krita="http://krita.org/namespaces/svg/krita"
    xmlns:sodipodi="http://sodipodi.sourceforge.net/DTD/sodipodi-0.dtd"
    width="900.094pt"
    height="473.299pt"
    viewBox="0 0 900.094 473.299">
<defs/>
<path id="shape0" transform="matrix(0.999999976271937 0 0 0.999999976271937 -22.1938511595179 15.3339429305829)" fill="none" stroke="#000000" stroke-width="0.855089071778242" stroke-linecap="square" stroke-linejoin="bevel" d="M0 0C13.3163 5.64935 1.6141 17.1498 0.403525 15.9392"/><path id="shape01" transform="matrix(0.999999949503514 0 0 0.999999949503515 34.958471014801 70.2818506909923)" fill="none" stroke="#000000" stroke-width="0.855089071778242" stroke-linecap="square" stroke-linejoin="bevel" d="M0.0030758 0C-0.209823 11.7996 10.6912 13.4963 13.5097 14.2996C15.3889 14.8352 62.2314 25.8815 154.037 47.4385C189.472 51.857 210.275 52.8612 216.45 50.4511C225.711 46.836 244.764 41.9132 242.637 27.776"/><path id="shape1" transform="matrix(0.999999976271937 0 0 0.999999976271937 102.335909259103 54.0043085695343)" fill="none" stroke="#000000" stroke-width="0.855089071778242" stroke-linecap="square" stroke-linejoin="bevel" d="M0 9.07635L0 0"/><path id="shape2" transform="matrix(0.999999976271937 0 0 0.999999976271937 105.285724433069 55.1388528672137)" fill="none" stroke="#000000" stroke-width="0.855089071778242" stroke-linecap="square" stroke-linejoin="bevel" d="M0 8.62254L0.680727 0"/><path id="shape3" transform="matrix(0.999999976271937 0 0 0.999999976271937 163.147483614713 64.215207248648)" fill="none" stroke="#000000" stroke-width="0.855089071778242" stroke-linecap="square" stroke-linejoin="bevel" d="M0 12.7069L0.226909 0"/><path id="shape4" transform="matrix(0.999999976271937 0 0 0.999999976271937 167.912569664966 65.5766604058631)" fill="none" stroke="#000000" stroke-width="0.855089071778242" stroke-linecap="square" stroke-linejoin="bevel" d="M0 12.48L0 0"/><path id="shape5" transform="matrix(0.999999976271937 0 0 0.999999976271937 78.2835701483022 47.1099925234364)" fill="none" stroke="#000000" stroke-width="0.855089071778242" stroke-linecap="square" stroke-linejoin="bevel" d="M127.75 25.7278L127.523 37.3001C48.7098 22.7779 6.20218 13.7772 0 10.2979L0.251638 0"/><path id="shape6" transform="matrix(0.999999976271937 0 0 0.999999976271937 34.9970653026 53.4066861270114)" fill="none" stroke="#000000" stroke-width="0.855089071778242" stroke-linecap="square" stroke-linejoin="bevel" d="M170.582 31.911C176.936 33.2725 192.255 30.8405 216.54 24.615C216.137 24.615 216.07 24.615 216.339 24.615C216.742 24.615 232.883 26.6326 240.954 39.1419C249.024 51.6512 226.225 57.3005 216.944 60.9322C210.756 63.3534 189.908 62.3446 154.397 57.9058C62.3938 36.25 15.4505 25.153 13.5673 24.615C10.7427 23.808 7.91799 23.4044 1.25983 18.1586C-5.39833 12.9128 15.1814 6.85992 43.0246 0"/><path id="shape7" transform="matrix(0.999999976271937 0 0 0.999999976271937 210.571435257708 72.157017332403)" fill="none" stroke="#000000" stroke-width="0.855089071778242" stroke-linecap="square" stroke-linejoin="bevel" d="M0.453818 0L0 12.9338"/><path id="shape8" transform="matrix(0.999999976271937 0 0 0.999999976271937 248.011397081124 66.7112047035425)" fill="none" stroke="#000000" stroke-width="0.855089071778242" stroke-linecap="square" stroke-linejoin="bevel" d="M0 0L0.907635 10.6647"/><path id="shape9" transform="matrix(0.999999976271937 0 0 0.999999976271937 253.003391990914 65.5766604058631)" fill="none" stroke="#000000" stroke-width="0.855089071778242" stroke-linecap="square" stroke-linejoin="bevel" d="M0 0L0.226909 12.0262"/><path id="shape10" transform="matrix(0.999999976271937 0 0 0.999999976271937 214.655794729353 71.9301084728672)" fill="none" stroke="#000000" stroke-width="0.855089071778242" stroke-linecap="square" stroke-linejoin="bevel" d="M0 0L0 12.48"/><path id="shape11" transform="matrix(0.999999976271937 0 0 0.999999976271937 206.940893505134 61.2921494032677)" fill="none" stroke="#000000" stroke-width="0.855089071778242" stroke-linecap="square" stroke-linejoin="bevel" d="M47.8778 3.14997C22.9178 7.68814 6.95854 10.0329 0 10.1841C9.07635 3.83069 21.5563 1.10779 24.7331 0.653969C27.9098 0.200151 45.6087 -0.934393 49.4661 1.56161C52.0378 3.2256 51.8109 3.2256 48.7854 1.56161"/><path id="shape12" transform="matrix(0.999999976271937 0 0 0.999999976271937 74.6530283957286 34.7606984109734)" fill="none" stroke="#000000" stroke-width="0.855089071778242" stroke-linecap="square" stroke-linejoin="bevel" d="M184.25 29.0007C183.796 22.1934 177.443 21.0589 168.593 19.0167C159.744 16.9745 128.204 6.99053 113.228 5.62908C98.2515 4.26763 68.0727 0.637084 54.2312 0.410175C40.3898 0.183266 38.5745 -0.49746 29.7251 0.637084C23.8254 1.39345 13.9171 5.02399 0 11.5287C90.3097 28.7738 134.935 37.245 133.876 36.9425"/><path id="shape13" transform="matrix(0.999999976271937 0 0 0.999999976271937 82.2061162644393 47.8862041648873)" fill="none" stroke="#000000" stroke-width="0.855089071778242" stroke-linecap="square" stroke-linejoin="bevel" d="M0.0556198 0.00246592C0.0556198 -0.108774 0.0370799 3.54359 0 10.9596L0 10.9596"/><path id="shape14" transform="matrix(0.999999976271937 0 0 0.999999976271937 51.6145693104911 85.9699855226742)" fill="none" stroke="#000000" stroke-width="0.855089071778242" stroke-linecap="square" stroke-linejoin="bevel" d="M0 0L3.25644 68.0596L34.6811 79.4571L40.7055 63.5006L115.115 88.9008L118.046 107.3L164.776 125.373L168.521 35.8208"/><path id="shape15" transform="matrix(0.999999976271937 0 0 0.999999976271937 267.190820886288 113.161249883066)" fill="none" stroke="#000000" stroke-width="0.855089071778242" stroke-linecap="square" stroke-linejoin="bevel" d="M0 51.2889L2.76797 0"/><path id="shape16" transform="matrix(0.999999976271937 0 0 0.999999976271937 176.987464864391 117.068976497733)" fill="none" stroke="#000000" stroke-width="0.855089071778242" stroke-linecap="square" stroke-linejoin="bevel" d="M31.099 5.69877L28.8195 81.8994L1.95386 72.6186L0 0Z"/><path id="shape17" transform="matrix(0.999999976271937 0 0 0.999999976271937 192.618371323059 120.325415343288)" fill="none" stroke="#000000" stroke-width="0.855089071778242" stroke-linecap="square" stroke-linejoin="bevel" d="M0 74.4096L0 0"/><path id="shape18" transform="matrix(0.999999976271937 0 0 0.999999976271937 181.067512840503 125.115286922694)" fill="none" stroke="#000000" stroke-width="0.855089071778242" stroke-linecap="square" stroke-linejoin="bevel" d="M0.0517733 0L0.0829824 22.0954L0 22.1784L6.9778 25.0231L6.53096 2.08525Z"/><path id="shape19" transform="matrix(0.999999976271937 0 0 0.999999976271937 195.594358724188 129.16897144115)" fill="none" stroke="#000000" stroke-width="0.855089071778242" stroke-linecap="square" stroke-linejoin="bevel" d="M0.383518 23.7014L0 0L7.36355 2.30111L7.05674 26.0792Z"/><path id="shape20" transform="matrix(0.999999976271937 0 0 0.999999976271937 256.610735699815 118.356005384106)" fill="none" stroke="#000000" stroke-width="0.855089071778242" stroke-linecap="square" stroke-linejoin="bevel" d="M0.308412 26.4247C-0.0616823 13.9155 -0.0986917 6.43963 0.197383 3.99701C0.41944 2.22056 0.752524 0.888225 1.19664 0"/><path id="shape21" transform="matrix(0.999999976271937 0 0 0.999999976271937 254.032415408464 119.910399451064)" fill="none" stroke="#000000" stroke-width="0.855089071778242" stroke-linecap="square" stroke-linejoin="bevel" d="M2.66468 3.21982C2.29458 1.81346 1.40636 0.740188 0 0"/><path id="shape22" transform="matrix(0.999999976271937 0 0 0.999999976271937 242.990161147697 122.464046846781)" fill="none" stroke="#000000" stroke-width="0.855089071778242" stroke-linecap="square" stroke-linejoin="bevel" d="M0.49458 27.0909C-0.0235511 14.2856 -0.13458 7.1058 0.161495 5.55141C0.457571 3.99701 0.901683 2.14654 1.49383 0"/><path id="shape23" transform="matrix(0.999999976271937 0 0 0.999999976271937 240.575684809014 121.926809582556)" fill="none" stroke="#000000" stroke-width="0.855089071778242" stroke-linecap="square" stroke-linejoin="bevel" d="M2.45656 5.28342C1.79039 2.54473 0.97154 0.783586 0 0"/><path id="shape24" transform="matrix(0.999999976271937 0 0 0.999999976271937 227.141984376986 115.889915783068)" fill="none" stroke="#000000" stroke-width="0.855089071778242" stroke-linecap="square" stroke-linejoin="bevel" d="M36.9672 0C37.8733 0.0896657 38.6224 0.800667 39.2146 2.13301C39.5106 2.72516 39.6217 10.4601 39.5476 25.3379L0.0216193 40.9929C-0.202161 18.6355 1.31131 7.03541 4.56203 6.19263C7.81275 5.34985 7.63215 5.34985 4.02024 6.19263"/><path id="shape25" transform="matrix(0.999999976271937 0 0 0.999999976271937 238.2572493838 157.28653072386)" fill="none" stroke="#000000" stroke-width="0.855089071778242" stroke-linecap="square" stroke-linejoin="bevel" d="M0 7.63953L0.138631 28.6649L15.009 19.2161L14.8662 0Z"/><path id="shape26" transform="matrix(0.999999976271937 0 0 0.999999976271937 238.058129613716 163.95174958836)" fill="none" stroke="#000000" stroke-width="0.855089071778242" stroke-linecap="square" stroke-linejoin="bevel" d="M0 6.15214L10.5579 0L10.8971 15.2237"/><path id="shape27" transform="matrix(0.999999976271937 0 0 0.999999976271937 250.671228238098 166.008046677534)" fill="none" stroke="#000000" stroke-width="0.855089071778242" stroke-linecap="square" stroke-linejoin="bevel" d="M1.97102 0L0 1.17643"/><path id="shape28" transform="matrix(0.999999976271937 0 0 0.999999976271937 250.910676536286 169.157997549425)" fill="none" stroke="#000000" stroke-width="0.855089071778242" stroke-linecap="square" stroke-linejoin="bevel" d="M2.01955 0L0 0.881075"/><path id="shape29" transform="matrix(0.999999976271937 0 0 0.999999976271937 250.935368682266 172.25805953302)" fill="none" stroke="#000000" stroke-width="0.855089071778242" stroke-linecap="square" stroke-linejoin="bevel" d="M1.9877 0L0 0.975349"/><path id="shape30" transform="matrix(0.999999976271937 0 0 0.999999976271937 241.205082825788 174.282298463476)" fill="none" stroke="#000000" stroke-width="0.855089071778242" stroke-linecap="square" stroke-linejoin="bevel" d="M0.102673 6.34755L0 2.13216L1.52238 0L3.15002 0.959191L3.15002 0.959191L3.19727 4.83724Z"/><path id="shape31" transform="matrix(0.999999976271937 0 0 0.999999976271937 241.314242721602 176.980368351273)" fill="none" stroke="#000000" stroke-width="0.855089071778242" stroke-linecap="square" stroke-linejoin="bevel" d="M0 0.839393L1.57559 0"/><path id="shape32" transform="matrix(0.999999976271937 0 0 0.999999976271937 241.536065455988 178.329078948619)" fill="none" stroke="#000000" stroke-width="0.855089071778242" stroke-linecap="square" stroke-linejoin="bevel" d="M0 0.78384L1.29446 0"/><path id="shape33" transform="matrix(0.999999976271937 0 0 0.999999976271937 239.784139634928 169.877251184291)" fill="none" stroke="#000000" stroke-width="0.855089071778242" stroke-linecap="square" stroke-linejoin="bevel" d="M0 2.59652L4.97596 0"/><path id="shape34" transform="matrix(0.999999976271937 0 0 0.999999976271937 240.075407894552 171.550300508771)" fill="none" stroke="#000000" stroke-width="0.855089071778242" stroke-linecap="square" stroke-linejoin="bevel" d="M0 2.6464L4.68083 0"/><path id="shape35" transform="matrix(0.999999976271937 0 0 0.999999976271937 239.590831671299 168.352051044106)" fill="none" stroke="#000000" stroke-width="0.855089071778242" stroke-linecap="square" stroke-linejoin="bevel" d="M0 2.59583L5.27121 0"/><path id="shape36" transform="matrix(0.999999976271937 0 0 0.999999976271937 246.196995889661 165.599507390534)" fill="none" stroke="#000000" stroke-width="0.855089071778242" stroke-linecap="square" stroke-linejoin="bevel" d="M0 0L0.457655 14.911"/><path id="shape37" transform="matrix(0.999999976271937 0 0 0.999999976271937 233.297327907666 170.881989044579)" fill="none" stroke="#000000" stroke-width="0.855089071778242" stroke-linecap="square" stroke-linejoin="bevel" d="M28.8522 0L0 19.9933"/><path id="shape38" transform="matrix(0.999999976271937 0 0 0.999999976271937 220.031227654834 188.672143149846)" fill="none" stroke="#000000" stroke-width="0.855089071778242" stroke-linecap="square" stroke-linejoin="bevel" d="M0 5.32596C0.300934 1.2977 1.25074 2.02218 2.75999 0.964806C4.26924 -0.0925662 5.97871 -0.000539212 7.82421 0.00372103C9.66971 0.00798127 11.5278 0.878689 12.1683 1.52208C12.8087 2.16548 12.7036 5.9537 12.6491 6.74844C12.5946 7.54319 12.0537 8.32426 11.5161 8.7518C10.9785 9.17933 11.013 9.95672 9.80889 10.1947C8.60475 10.4326 7.85811 10.7633 6.89542 10.6808C5.93274 10.5983 3.45438 9.93961 1.93196 9.29354C0.490982 8.40502 1.02723 8.52943 0 5.32596Z"/><path id="shape39" transform="matrix(0.999999976271937 0 0 0.999999976271937 224.589894139285 189.854461543777)" fill="none" stroke="#000000" stroke-width="0.855089071778242" stroke-linecap="square" stroke-linejoin="bevel" d="M4.99251 9.0279C2.14579 8.83764 -0.138628 8.04068 0.00655756 4.82649C0.151743 1.6123 2.73173 -0.0476372 3.92558 0.00104055C5.11944 0.0497183 7.37984 1.01564 7.92889 1.88942C8.29492 2.47194 8.32879 2.47681 8.03051 1.90403"/><path id="shape01" transform="matrix(0.999999946979604 0 0 0.999999946979604 261.320758392673 165.26788348867)" fill="none" stroke="#000000" stroke-width="0.855089071778242" stroke-linecap="square" stroke-linejoin="bevel" d="M0 4.79047C0.244441 1.16722 1.01594 1.81886 2.24187 0.867801C3.46779 -0.0832592 4.85634 -0.000484999 6.35539 0.0033469C7.85444 0.0071788 9.36372 0.790342 9.88398 1.36904C10.4042 1.94775 10.3188 5.35509 10.2745 6.06992C10.2303 6.78477 9.79089 7.48731 9.35422 7.87186C8.91754 8.2564 8.94556 8.95563 7.9675 9.16968C6.98941 9.38366 6.38293 9.68111 5.60096 9.60691C4.819 9.5327 2.8059 8.94024 1.56928 8.35913C0.398811 7.55995 0.834391 7.67185 0 4.79047Z"/><path id="shape02" transform="matrix(0.999999990953627 0 0 0.999999990953627 265.40764460349 166.539121819036)" fill="none" stroke="#000000" stroke-width="0.855089071778242" stroke-linecap="square" stroke-linejoin="bevel" d="M3.77429 7.82091C1.6222 7.65608 -0.104801 6.96567 0.00495741 4.18121C0.114716 1.39674 2.06516 -0.0412683 2.9677 0.000901437C3.87025 0.0430712 5.57909 0.879853 5.99417 1.63681C6.27088 2.14145 6.29649 2.14567 6.07099 1.64947"/><path id="shape40" transform="matrix(0.999999976271937 0 0 0.999999976271937 217.698856331814 197.734042631918)" fill="none" stroke="#000000" stroke-width="0.855089071778242" stroke-linecap="square" stroke-linejoin="bevel" d="M0 2.06922L3.68073 0"/><path id="shape41" transform="matrix(0.999999976271937 0 0 0.999999976271937 216.87884072245 175.775678976984)" fill="none" stroke="#000000" stroke-width="0.855089071778242" stroke-linecap="square" stroke-linejoin="bevel" d="M50.2603 0.705777C49.8747 9.81821 36.646 21.2287 34.8209 22.3181C32.9957 23.4075 16.5297 34.3598 9.1685 36.5249C4.26104 37.9683 1.20487 37.6491 0 35.5672L50.1897 0"/><ellipse id="shape42" transform="matrix(0.999999976271937 0 0 0.999999976271937 86.9646757065348 161.992834104765)" rx="4.60479004863553" ry="5.1372857683311" cx="4.60479004863553" cy="5.1372857683311" fill="none" stroke="#000000" stroke-width="0.855089071778242" stroke-linecap="square" stroke-linejoin="bevel"/><ellipse id="shape03" transform="matrix(0.999999954968725 0 0 0.999999954968725 97.1072952825234 166.323020663455)" rx="4.60479004863553" ry="5.1372857683311" cx="4.60479004863553" cy="5.1372857683311" fill="none" stroke="#000000" stroke-width="0.855089071778242" stroke-linecap="square" stroke-linejoin="bevel"/><ellipse id="shape04" transform="matrix(0.99999993385956 0 0 0.99999993385956 147.574267883346 180.852408466155)" rx="4.81294537224402" ry="5.81245421150316" cx="4.81294537224402" cy="5.81245421150316" fill="none" stroke="#000000" stroke-width="0.855089071778242" stroke-linecap="square" stroke-linejoin="bevel"/><ellipse id="shape05" transform="matrix(0.999999919235107 0 0 0.999999919235107 159.156493784974 184.880690218364)" rx="4.81294537224402" ry="5.81245421150316" cx="4.81294537224402" cy="5.81245421150316" fill="none" stroke="#000000" stroke-width="0.855089071778242" stroke-linecap="square" stroke-linejoin="bevel"/><path id="shape43" transform="matrix(0.999999976271937 0 0 0.999999976271937 118.917115499159 167.175920143152)" fill="none" stroke="#000000" stroke-width="0.855089071778242" stroke-linecap="square" stroke-linejoin="bevel" d="M0 0L12.9687 4.83731"/><path id="shape44" transform="matrix(0.999999976271937 0 0 0.999999976271937 133.483131757386 164.565910448297)" fill="none" stroke="#000000" stroke-width="0.855089071778242" stroke-linecap="square" stroke-linejoin="bevel" d="M0.182625 0L0 9.69445L9.12675 12.8403L9.7927 2.02526"/><path id="shape45" transform="matrix(0.999999976271937 0 0 0.999999976271937 142.98581004334 170.153421937831)" fill="none" stroke="#000000" stroke-width="0.855089071778242" stroke-linecap="square" stroke-linejoin="bevel" d="M0 7.03332L10.0085 0"/><path id="shape46" transform="matrix(0.999999976271937 0 0 0.999999976271937 93.5453195886806 152.901027484601)" fill="none" stroke="#000000" stroke-width="0.855089071778242" stroke-linecap="square" stroke-linejoin="bevel" d="M6.64343 0L6.28932 0.176037L0 4.93659L9.45533 7.69966L9.53151 13.0055"/><path id="shape47" transform="matrix(0.999999976271937 0 0 0.999999976271937 93.2714660676145 158.279542998393)" fill="none" stroke="#000000" stroke-width="0.855089071778242" stroke-linecap="square" stroke-linejoin="bevel" d="M0.184406 0L0 3.27138"/><path id="shape48" transform="matrix(0.999999976271937 0 0 0.999999976271937 107.129759904111 157.102740199581)" fill="none" stroke="#000000" stroke-width="0.855089071778242" stroke-linecap="square" stroke-linejoin="bevel" d="M0 15.1799L5.39974 12.7164L5.66484 0L5.66484 0L5.7778 10.2196L11.2215 12.2352L11.7239 2.86197L11.804 2.86216"/><path id="shape49" transform="matrix(0.999999976271937 0 0 0.999999976271937 103.176890545802 156.642914869889)" fill="none" stroke="#000000" stroke-width="0.855089071778242" stroke-linecap="square" stroke-linejoin="bevel" d="M0 4.22346L9.11775 0"/><path id="shape50" transform="matrix(0.999999976271937 0 0 0.999999976271937 148.876088257117 171.240619479412)" fill="none" stroke="#000000" stroke-width="0.855089071778242" stroke-linecap="square" stroke-linejoin="bevel" d="M6.13145 0L0.560627 3.91311L0 10.5641"/><path id="shape51" transform="matrix(0.999999976271937 0 0 0.999999976271937 157.479021024432 187.168297868859)" fill="none" stroke="#000000" stroke-width="0.855089071778242" stroke-linecap="square" stroke-linejoin="bevel" d="M0 0L1.85266 0.54955"/><path id="shape52" transform="matrix(0.999999976271937 0 0 0.999999976271937 150.2003448259 175.046433695342)" fill="none" stroke="#000000" stroke-width="0.855089071778242" stroke-linecap="square" stroke-linejoin="bevel" d="M0 0L16.6752 4.40068"/><path id="shape53" transform="matrix(0.999999976271937 0 0 0.999999976271937 62.733794211906 98.1513929567362)" fill="none" stroke="#000000" stroke-width="0.855089071778242" stroke-linecap="square" stroke-linejoin="bevel" d="M0 17.476L16.1825 21.3502C17.0318 7.99997 14.7205 0.909297 9.24855 0.0781417C3.77659 -0.753013 0.693743 5.04627 0 17.476Z"/><path id="shape54" transform="matrix(0.999999976271937 0 0 0.999999976271937 88.0439636872615 103.925575904734)" fill="none" stroke="#000000" stroke-width="0.855089071778242" stroke-linecap="square" stroke-linejoin="bevel" d="M0 17.2853L14.879 20.696C16.8005 8.26913 15.3836 1.5642 10.6282 0.581231C3.49511 -0.89323 3.49511 -0.89323 0 17.2853Z"/><path id="shape55" transform="matrix(0.999999976271937 0 0 0.999999976271937 113.889337534005 110.284685713908)" fill="none" stroke="#000000" stroke-width="0.855089071778242" stroke-linecap="square" stroke-linejoin="bevel" d="M0 17.3549L17.5595 23.074C19.3319 8.75392 17.7123 1.20443 12.7006 0.425491C5.18313 -0.742911 5.18313 -0.742911 0 17.3549Z"/><path id="shape56" transform="matrix(0.999999976271937 0 0 0.999999976271937 143.568152309356 116.84030543648)" fill="none" stroke="#000000" stroke-width="0.855089071778242" stroke-linecap="square" stroke-linejoin="bevel" d="M0 18.695L17.0239 23.7221C18.3868 9.50345 16.435 1.82529 11.1684 0.687661C3.26844 -1.01878 3.26844 -1.01878 0 18.695Z"/><path id="shape57" transform="matrix(0.999999976271937 0 0 0.999999976271937 95.5379147579585 169.902159188447)" fill="none" stroke="#000000" stroke-width="0.855089071778242" stroke-linecap="square" stroke-linejoin="bevel" d="M0 0L1.56278 0.846156L1.5625 0.966519L1.56306 0.725792"/>
</svg>
