<?xml version="1.0" standalone="no"?>
<!DOCTYPE svg PUBLIC "-//W3C//DTD SVG 20010904//EN" "http://www.w3.org/TR/2001/REC-SVG-20010904/DTD/svg10.dtd">
<!-- Created using Krita: https://krita.org -->
<svg xmlns="http://www.w3.org/2000/svg" 
    xmlns:xlink="http://www.w3.org/1999/xlink"
    xmlns:krita="http://krita.org/namespaces/svg/krita"
    xmlns:sodipodi="http://sodipodi.sourceforge.net/DTD/sodipodi-0.dtd"
    width="900.094pt"
    height="473.299pt"
    viewBox="0 0 900.094 473.299">
<defs/>
<path id="shape0" transform="matrix(0.999999976271937 0 0 0.999999976271937 24.1484313947065 125.256920051778)" fill="none" stroke="#000000" stroke-width="0.855089071778242" stroke-linecap="square" stroke-linejoin="bevel" d="M0 0L864.924 248.409"/><path id="shape1" transform="matrix(0.999999976271937 0 0 0.999999976271937 21.0302877214044 152.741984621333)" fill="none" stroke="#000000" stroke-width="0.855089071778242" stroke-linecap="square" stroke-linejoin="bevel" d="M0 0L849.566 285.03"/><path id="shape2" transform="matrix(0.999999976271937 0 0 0.999999976271937 266.854869807702 134.824946779841)" fill="none" stroke="#000000" stroke-width="0.855089071778242" stroke-linecap="square" stroke-linejoin="bevel" d="M0 61.0798C57.4563 73.6676 91.9518 71.831 144.728 36.5035C197.505 1.17605 204.205 4.06578 231.998 0.297581C250.527 -2.21455 380.158 11.1786 620.89 40.477"/><path id="shape01" transform="matrix(0.999999945105408 0 0 0.999999945105408 281.177256097214 187.04928962779)" fill="none" stroke="#000000" stroke-width="0.855089071778242" stroke-linecap="square" stroke-linejoin="bevel" d="M0 53.616C57.4563 66.2038 91.7249 69.7579 144.501 34.4304C191.494 4.86002 200.047 3.7682 227.84 0C246.352 4.90699 349.724 13.5806 586.298 58.5321"/>
</svg>
