<?xml version="1.0" standalone="no"?>
<!DOCTYPE svg PUBLIC "-//W3C//DTD SVG 20010904//EN" "http://www.w3.org/TR/2001/REC-SVG-20010904/DTD/svg10.dtd">
<!-- Created using Krita: https://krita.org -->
<svg xmlns="http://www.w3.org/2000/svg" 
    xmlns:xlink="http://www.w3.org/1999/xlink"
    xmlns:krita="http://krita.org/namespaces/svg/krita"
    xmlns:sodipodi="http://sodipodi.sourceforge.net/DTD/sodipodi-0.dtd"
    width="900.094pt"
    height="473.299pt"
    viewBox="0 0 900.094 473.299">
<defs/>
<path id="shape0" transform="matrix(0.999999976271937 0 0 0.999999976271937 33.2380540080748 30.6022532223339)" fill="#ffffff" fill-rule="evenodd" stroke="#ffffff" stroke-width="0.855089071778242" stroke-linecap="square" stroke-linejoin="bevel" d="M238.464 84.1819L236.71 132.643L240.81 135.802L239.559 143.602L235.652 145.784L233.103 153.171L223.562 164.375L210.874 174.477L195.25 181.971L189.358 183.806L185.046 183.522L136.419 164.585L133.882 166.359L132.237 167.45L126.559 165.794L124.65 162.71L120.404 163.179L114.999 162.003L112.886 157.959L113.654 151.8L113.667 146.05L107.567 149.527L98.9507 145.468L97.9306 142.591L87.1226 139.212L84.9977 140.439L81.2361 138.993L79.9316 140.701L74.586 143.358L71.0168 147.526L66.705 147.174L62.7426 143.742L62.3358 142.03L58.7059 142.843L55.0108 142.218L52.1424 139.336L52.0822 135.777L19.8652 125.023L19.0763 110.92L17.7757 81.2765L16.7378 56.4254L1.68985 51.2566L0 41.943L0.292619 33.7976L17.7627 27.6086L42.4903 20.7519L42.496 18.2876L39.2148 16.2948L39.2264 11.2977L67.6608 0L102.639 0.833738L141.716 5.09963L193.518 12.6122L223.75 23.3608L233.3 37.8951L243.723 59.6875L249.373 73.6652L239.422 84.321Z"/>
</svg>
