<?xml version="1.0" standalone="no"?>
<!DOCTYPE svg PUBLIC "-//W3C//DTD SVG 20010904//EN" "http://www.w3.org/TR/2001/REC-SVG-20010904/DTD/svg10.dtd">
<!-- Created using Krita: https://krita.org -->
<svg xmlns="http://www.w3.org/2000/svg" 
    xmlns:xlink="http://www.w3.org/1999/xlink"
    xmlns:krita="http://krita.org/namespaces/svg/krita"
    xmlns:sodipodi="http://sodipodi.sourceforge.net/DTD/sodipodi-0.dtd"
    width="900.094pt"
    height="473.299pt"
    viewBox="0 0 900.094 473.299">
<defs/>
<path id="shape0" transform="matrix(0.999999989365897 0 0 0.999999989365897 411.951799172178 114.102029153359)" fill="none" stroke="#000000" stroke-width="0.855089071778242" stroke-linecap="square" stroke-linejoin="bevel" d="M5.99467 0.337449C1.83833 3.12185 -0.070603 4.66621 0.00199311 8.81629C0.0745892 12.9664 5.3947 15.6991 9.25687 15.7491C13.119 15.7991 18.4176 12.5512 18.3416 8.87075C18.2657 5.19032 15.4586 1.70867 12.7636 0.439858C9.80684 -0.265466 8.17309 0.0137725 5.99467 0.337449Z"/><path id="shape1" transform="matrix(0.999999989365897 0 0 0.999999989365897 419.181651077827 77.176028771137)" fill="#000000" fill-rule="evenodd" stroke="#636363" stroke-width="0.727575789144644" stroke-linecap="square" stroke-linejoin="bevel" d="M0 38.9947C9.61799 13.2539 14.4209 0.255649 14.4087 0"/><path id="shape2" transform="matrix(0.999999989365897 0 0 0.999999989365897 421.817492053695 78.8254104422072)" fill="#000000" fill-rule="evenodd" stroke="#636363" stroke-width="0.727575789144644" stroke-linecap="square" stroke-linejoin="bevel" d="M0 38.885C9.76176 12.5066 14.6093 -0.451061 14.5426 0.011982L14.567 0.52328"/><path id="shape3" transform="matrix(0.999999989365897 0 0 0.999999989365897 419.154619462439 114.84624356752)" fill="none" stroke="#000000" stroke-width="0.727575789144644" stroke-linecap="square" stroke-linejoin="bevel" d="M4.01931 1.54454C4.00931 2.61195 2.57265 3.16829 1.9325 3.16838C1.29234 3.16846 0.0192072 2.68055 0.000242125 1.645C-0.0187229 0.609459 1.08047 0.00826196 1.8727 0.000915621C2.66493 -0.00643071 2.66493 -0.00643071 4.01931 1.54454Z"/><ellipse id="shape4" transform="matrix(0.999999989365897 0 0 0.999999989365897 433.340172527527 71.7157742642738)" rx="3.75039066569406" ry="3.00031253255523" cx="3.75039066569406" cy="3.00031253255523" fill="none" stroke="#000000" stroke-width="0.727575789144644" stroke-linecap="square" stroke-linejoin="bevel"/><path id="shape5" transform="matrix(0.999999989365897 0 0 0.999999989365897 430.670458595381 62.0339467175092)" fill="none" stroke="#000000" stroke-width="0.727575789144644" stroke-linecap="square" stroke-linejoin="bevel" d="M9.53849 0.143569C6.31457 0.184985 2.91414 -0.327827 2.4972 0.36727C2.08027 1.06237 2.25152 2.29204 1.4104 2.74481C0.569281 3.19759 0.0437506 4.76062 0.00106827 5.43784C-0.041614 6.11507 1.20613 7.8935 1.69623 7.94512C2.18633 7.99674 5.4317 8.40442 6.29248 8.36332C7.15326 8.32222 8.30271 8.04226 8.69305 8.36122C9.08338 8.68017 11.1029 10.9094 11.584 10.7739C12.0652 10.6384 13.2895 10.3548 13.7243 10.034C14.1591 9.71316 15.556 7.54586 15.4009 6.65302C15.2457 5.76018 15.2457 5.76018 9.53849 0.143569Z"/><path id="shape6" transform="matrix(0.999999989365897 0 0 0.999999989365897 440.420832829406 18.6448710104214)" fill="none" stroke="#000000" stroke-width="0.727575789144644" stroke-linecap="square" stroke-linejoin="bevel" d="M44.2255 33.1051C52.6685 38.2203 55.4665 39.0327 56.0061 40.426C56.5456 41.8192 58.2997 50.4861 58.0937 51.1266C57.9565 51.5536 60.5833 51.5333 65.9743 51.0656L65.974 49.4101C65.974 49.4101 65.9388 47.5723 65.8684 43.8967C65.7628 38.3834 58.9976 32.0844 56.5852 29.4404C54.1727 26.7964 52.3115 29.0926 48.8648 22.9504C46.5671 18.8557 43.0098 17.0021 38.1932 17.3898C38.2356 17.1775 38.6101 16.7655 39.3167 16.1536C40.3765 15.2358 39.6753 8.8049 39.9185 7.29543C40.1618 5.78596 35.3183 1.7602 32.7375 0.54325C30.1567 -0.673695 23.9056 0.491981 22.6584 0.78804C21.4112 1.0841 18.7036 3.81492 18.7228 7.51922C18.7356 9.98875 20.0794 13.367 22.7543 17.654C19.0217 20.9331 16.7335 23.092 15.8896 24.1309C14.6239 25.6892 12.8121 33.9744 12.7635 34.6074C12.7149 35.2404 5.59931 41.414 0 43.0215"/><path id="shape7" transform="matrix(0.999999989365897 0 0 0.999999989365897 493.921299822893 69.7977443911314)" fill="none" stroke="#000000" stroke-width="0.727575789144644" stroke-linecap="square" stroke-linejoin="bevel" d="M4.04268 0C2.42097 0.708113 -0.133324 1.69726 0.00542505 2.95199C0.144174 4.20671 0.511377 5.29285 1.45899 5.32644C2.40661 5.36002 5.59014 4.34083 5.96486 5.58428C6.33957 6.82774 4.84203 11.787 5.89084 12.2887C6.93964 12.7905 8.05562 11.397 9.31409 11.3369C10.5726 11.2768 12.9548 11.6361 13.5652 11.2128C14.1757 10.7894 16.9617 6.39935 16.9242 5.6128C16.8866 4.82625 14.5413 0.287015 13.1256 0.354621C11.7098 0.422227 11.7098 0.422227 4.04268 0Z"/><path id="shape8" transform="matrix(0.999999989365897 0 0 0.999999989365897 463.489496962267 36.2785391856365)" fill="none" stroke="#000000" stroke-width="0.727575789144644" stroke-linecap="square" stroke-linejoin="bevel" d="M15.537 0.183608C13.9934 2.31404 10.7934 4.21506 9.05405 4.40095C7.8945 4.52488 4.87648 3.05789 0 0"/><path id="shape9" transform="matrix(0.999999989365897 0 0 0.999999989365897 469.688682285582 30.2896108410958)" fill="none" stroke="#000000" stroke-width="0.727575789144644" stroke-linecap="square" stroke-linejoin="bevel" d="M0 3.37336C1.36561 1.09667 0.349903 0.877108 3.12938 0.141251C4.98237 -0.34932 6.74001 0.437941 8.4023 2.50304"/><path id="shape10" transform="matrix(0.999999989365897 0 0 0.999999989365897 466.19310834834 24.6124753237841)" fill="#000000" fill-rule="evenodd" stroke="#000000" stroke-width="0.727575789144644" stroke-linecap="square" stroke-linejoin="bevel" d="M0.54858 0.470539L0 1.94054L1.00948 2.92363L2.68181 1.94999L1.76366 0Z"/><path id="shape11" transform="matrix(0.999999989365897 0 0 0.999999989365897 472.399578815925 23.6439705938692)" fill="#000000" fill-rule="evenodd" stroke="#000000" stroke-width="0.727575789144644" stroke-linecap="square" stroke-linejoin="bevel" d="M0.136193 0.557428L0 1.46051L1.23708 1.8318L2.45698 1.09215L2.04619 0Z"/><path id="shape12" transform="matrix(0.999999989365897 0 0 0.999999989365897 446.224009176858 46.0819543631926)" fill="none" stroke="#000000" stroke-width="0.727575789144644" stroke-linecap="square" stroke-linejoin="bevel" d="M16.4315 0C17.962 1.92499 18.7751 5.56263 18.7336 8.04223C18.6922 10.5218 12.8339 16.7159 11.4633 18.14C10.5495 19.0895 6.72844 20.5241 0 22.4438"/><path id="shape13" transform="matrix(0.999999989365897 0 0 0.999999989365897 464.691989044774 54.1363106990006)" fill="none" stroke="#000000" stroke-width="0.727575789144644" stroke-linecap="square" stroke-linejoin="bevel" d="M0 1.11949C2.49505 3.15827 4.11675 5.31868 5.0891 7.27033C6.06145 9.22198 7.19731 12.9241 7.18992 14.443C7.18253 15.9619 5.78145 16.7481 5.86903 18.5822C5.92742 19.8049 6.0035 20.8402 6.09728 21.6883C6.33277 22.1566 7.04544 22.5754 8.23528 22.9449C10.0201 23.499 14.706 24.5541 17.4969 24.4208C20.2879 24.2875 23.1774 22.8708 24.2252 21.3821C24.9238 20.3897 24.6634 13.2623 23.444 0"/><path id="shape14" transform="matrix(0.999999989365897 0 0 0.999999989365897 465.092492996959 75.2487322076725)" fill="none" stroke="#000000" stroke-width="0.727575789144644" stroke-linecap="square" stroke-linejoin="bevel" d="M5.71962 1.05431C2.87289 10.0617 -0.413551 24.9245 0.0427162 29.4584C0.498984 33.9922 -0.343458 38.1085 0.408707 40.4703C0.910149 42.0448 1.72809 44.1104 2.86254 46.667C11.9532 47.3519 16.5099 47.374 16.5326 46.7336C16.5666 45.7729 14.8486 33.227 14.0091 30.7096C13.1696 28.1921 11.4182 21.6421 12.5722 19.0295C13.7262 16.4169 16.2963 11.6586 17.4848 11.442C18.6733 11.2254 23.4656 12.8348 25.5127 15.5343C27.5598 18.2339 32.258 26.2416 32.6193 30.4603C32.8602 33.2728 33.2709 37.9686 33.8515 44.5479C42.0711 43.7291 46.0859 43.0046 45.896 42.3743C45.6111 41.4288 39.0764 15.0465 38.0014 12.6202C36.9265 10.1939 29.4106 1.76126 27.2157 0.986915C25.7525 0.470685 24.831 0.141713 24.4512 0"/><path id="shape15" transform="matrix(0.999999989365897 0 0 0.999999989365897 462.626920311024 121.929410852251)" fill="none" stroke="#000000" stroke-width="0.727575789144644" stroke-linecap="square" stroke-linejoin="bevel" d="M4.94282 0C2.10302 1.92727 -0.220793 4.42713 0.0167296 5.99029C0.254252 7.55345 6.18718 7.86736 7.84833 7.40799C8.95576 7.10174 12.1611 6.0076 17.4643 4.12557L17.4045 0.59938L17.4587 0.596793"/><path id="shape16" transform="matrix(0.999999989365897 0 0 0.999999989365897 499.831488877955 117.860968294717)" fill="none" stroke="#000000" stroke-width="0.727575789144644" stroke-linecap="square" stroke-linejoin="bevel" d="M0 2.03926C0.792452 6.12769 1.827 7.32702 2.50031 7.78351C3.17363 8.24 7.76267 8.83526 9.7257 9.01298C11.6887 9.19071 17.6294 9.66714 18.0369 9.10475C18.4444 8.54236 18.4493 6.37041 17.5928 5.48832C17.0218 4.90027 14.7808 3.07083 10.8698 0"/>
</svg>
